PathFileType	4	(X/Y/Z)	 s05c0301.trc
DataRate	CameraRate	NumFrames	NumMarkers	Units	OrigDataRate	OrigDataStartFrame	OrigNumFrames
200	200	4	50	mm	200	1751	2000
Frame#	Time	racr			lacr			c7			jug			rlel			rdr			llel			ldr			s2			lic			ric			lasi			rasi			rpsi			lpsi			rgt			lgt			rth1			rth2			rth3			rth4			rlfc			rmfc			rsh1			rsh2			rsh3			rsh4			rlmal			rmmal			rcal			rtoe			rmt5			lth1			lth2			lth4			lth3			llfc			lmfc			lsh1			lsh2			lsh3			lsh4			llmal			lmmal			lcal			ltoe			lmt5			SBIKE			LBIKE			RBIKE			
		X1	Y1	Z1	X2	Y2	Z2	X3	Y3	Z3	X4	Y4	Z4	X5	Y5	Z5	X6	Y6	Z6	X7	Y7	Z7	X8	Y8	Z8	X9	Y9	Z9	X10	Y10	Z10	X11	Y11	Z11	X12	Y12	Z12	X13	Y13	Z13	X14	Y14	Z14	X15	Y15	Z15	X16	Y16	Z16	X17	Y17	Z17	X18	Y18	Z18	X19	Y19	Z19	X20	Y20	Z20	X21	Y21	Z21	X22	Y22	Z22	X23	Y23	Z23	X24	Y24	Z24	X25	Y25	Z25	X26	Y26	Z26	X27	Y27	Z27	X28	Y28	Z28	X29	Y29	Z29	X30	Y30	Z30	X31	Y31	Z31	X32	Y32	Z32	X33	Y33	Z33	X34	Y34	Z34	X35	Y35	Z35	X36	Y36	Z36	X37	Y37	Z37	X38	Y38	Z38	X39	Y39	Z39	X40	Y40	Z40	X41	Y41	Z41	X42	Y42	Z42	X43	Y43	Z43	X44	Y44	Z44	X45	Y45	Z45	X46	Y46	Z46	X47	Y47	Z47	X48	Y48	Z48	X49	Y49	Z49	X50	Y50	Z50	
1751	8.7550	730.600366	1295.738671	-123.101377	752.210034	1262.819502	-392.109695	733.878520	1354.064152	-272.019669	663.218579	1209.840424	-249.669807	564.074417	1101.041648	23.045675	686.833919	919.090945	-64.129824	556.195675	1104.271939	-576.682061	688.529317	927.111660	-461.440106	136.301979	1239.959312	-309.834231	303.851584	1197.633717	-428.733711	266.073496	1271.401103	-156.925230	330.433531	1142.165909	-374.390201	293.350579	1196.906795	-166.084217	173.231351	1291.249183	-275.940034	189.680954	1272.635184	-359.298008	210.644411	1155.371716	-110.804701	209.494145	1109.225745	-444.162294	305.807561	1085.960072	-85.618079	389.700915	1056.473107	-73.236968	444.580347	988.316531	-63.054797	410.479692	1083.007539	-89.118411	546.424629	883.542754	-75.251893	546.746192	873.013912	-187.887787	450.974117	834.258360	-57.862632	396.433695	765.839667	-72.868083	318.627208	731.848849	-83.085161	418.718318	742.274357	-93.709230	218.166779	642.335237	-98.861325	253.002695	654.329056	-175.110104	156.200262	680.796208	-146.086005	287.585967	416.426949	-152.686763	217.543675	488.917262	-85.345121	241.395050	977.024973	-460.707232	278.197120	900.009980	-453.976524	312.326371	905.412098	-438.708984	269.128572	809.670466	-450.167862	282.850656	670.033745	-414.899589	255.489856	660.165669	-312.601758	223.818996	559.437573	-450.214415	219.159182	473.010982	-440.140452	171.652899	397.959842	-442.804426	247.793204	465.820363	-415.150010	145.691963	282.465005	-438.712679	168.477403	302.880206	-367.959840	78.361426	265.639381	-401.107648	345.373984	139.906125	-387.316582	239.928071	154.467357	-458.199496	-214.209033	914.548094	-268.769358	-43.615649	84.862961	-475.052019	-51.808013	80.135038	-77.558651	
1752	8.7600	729.620676	1295.156526	-120.849491	752.343092	1263.346994	-389.989281	733.654497	1353.813592	-269.503914	662.392082	1209.823093	-248.232985	562.666955	1100.004876	23.063178	686.677316	919.530995	-63.926579	556.574785	1105.259805	-575.287498	688.849750	927.110835	-461.329785	136.515659	1240.369044	-312.829192	305.707084	1197.534898	-429.886342	264.170799	1273.107367	-158.732445	331.612415	1142.282409	-375.136855	291.588315	1198.158368	-167.913056	172.874108	1291.760512	-279.117236	190.615597	1272.812490	-362.164269	209.054937	1157.162811	-112.765701	211.226419	1109.314365	-445.744259	304.972721	1089.083089	-87.363687	389.237233	1060.887833	-73.888534	445.050547	993.504646	-63.445615	409.768761	1087.885420	-89.580381	549.340058	891.246108	-74.600392	550.493587	880.835578	-187.622973	455.337748	840.218642	-57.787335	402.161348	770.766090	-72.603301	325.111511	735.168776	-83.061948	424.936086	747.651745	-93.449264	226.081785	644.159113	-98.942750	260.576818	656.310749	-174.860778	163.524774	681.272834	-146.079364	299.101182	419.149164	-152.577868	227.908074	490.752052	-85.159796	242.393094	977.749801	-461.864443	277.916754	900.196159	-455.240877	312.217861	905.045472	-440.390742	267.280199	810.028056	-451.639944	279.327995	669.814013	-416.601528	251.858591	660.134927	-314.097201	219.966190	559.776890	-452.285333	214.241605	473.405649	-442.284835	166.073671	398.897276	-445.734070	242.586855	465.946770	-417.084450	139.360083	283.478112	-441.501968	161.627425	303.264645	-369.201108	71.265263	268.318383	-405.197243	334.831252	136.515799	-385.462297	231.219410	153.032718	-458.615083	-214.268965	914.535352	-268.703877	-43.648610	84.865584	-475.047813	-51.837623	80.154071	-77.560183	
1753	8.7650	728.803210	1294.337841	-118.698951	752.375834	1263.931247	-388.020686	733.473578	1353.564077	-267.110279	661.404983	1209.682980	-247.249280	565.633756	1099.157866	23.364790	686.563183	919.883962	-63.847066	556.603783	1106.337303	-573.947420	689.205872	927.130808	-461.196970	136.719975	1241.202938	-315.735007	307.338004	1197.874530	-431.061861	262.211447	1274.411952	-160.734008	332.467466	1142.693147	-375.732416	289.406279	1199.706901	-169.953978	172.824239	1292.461820	-282.580722	191.456291	1273.525627	-364.891355	207.129093	1158.959542	-114.939242	213.007116	1109.786140	-447.473038	303.592469	1091.965043	-88.957388	388.076313	1064.967718	-74.829073	444.331361	998.157097	-63.789013	408.441647	1092.197590	-90.289434	551.244528	898.096291	-73.597447	553.775858	887.822809	-186.531728	459.197756	845.651123	-57.904265	407.577589	774.717610	-72.878059	331.197846	737.935097	-82.984043	430.708872	752.354484	-93.417269	233.608746	645.104323	-99.010935	267.659233	657.749985	-174.529979	170.174849	680.890864	-145.898387	310.968877	421.620099	-152.800239	239.012846	491.789269	-84.461340	243.860819	978.859877	-462.716986	278.278194	900.867037	-456.108496	312.698167	905.231218	-441.525946	266.413360	810.931970	-452.566100	276.987049	670.135610	-418.043186	249.110746	660.609649	-315.301741	216.998491	560.753414	-454.016023	210.295547	474.406341	-444.130342	161.316468	400.477991	-448.311332	238.203953	466.701181	-418.546694	133.431270	285.198068	-444.165353	155.389712	304.565138	-370.356663	64.461250	271.881443	-408.849595	324.420182	133.749549	-384.191548	222.344957	152.238436	-459.033995	-214.315739	914.529682	-268.616279	-43.665222	84.894194	-475.049942	-51.840615	80.136138	-77.561661	
1754	8.7700	728.104415	1293.303868	-116.605627	752.273396	1264.595416	-386.145142	733.309712	1353.319614	-264.742048	660.291217	1209.442964	-246.660746	559.920324	1098.804207	23.135903	686.415522	920.407010	-63.718780	556.692987	1107.421092	-572.510964	689.617037	927.116951	-461.104976	136.927907	1242.361308	-318.946984	308.679281	1198.666452	-432.135215	260.224928	1275.971844	-162.644542	333.264014	1143.655204	-376.425952	288.756724	1202.027558	-170.180455	171.888548	1294.667647	-285.066240	192.196575	1274.690870	-367.529740	204.764094	1161.186071	-117.030484	214.769216	1110.663631	-449.335887	301.543997	1094.828674	-90.590504	386.202610	1068.636117	-76.086800	443.161854	1002.596419	-64.635976	406.406915	1096.234142	-91.127365	553.816371	904.881439	-74.740238	557.522969	895.668699	-183.440925	462.350450	850.252731	-58.213971	412.395219	778.291097	-72.993107	336.875653	739.934993	-83.027769	435.933797	756.493124	-93.763136	240.049426	645.367008	-99.026906	274.207666	658.646607	-174.212041	175.734127	679.718906	-145.914489	322.235463	423.907237	-152.581665	249.096432	492.532911	-84.138134	245.666159	980.516116	-463.069624	279.229411	902.127551	-456.609301	313.738694	906.106515	-442.171119	266.529991	812.230388	-453.296008	276.059781	670.805078	-419.140088	247.517089	661.583577	-316.268448	215.225284	562.184982	-455.507076	207.256835	475.968457	-445.686781	157.370952	402.710420	-450.490909	234.806365	467.868169	-419.834987	127.677953	287.598004	-446.424630	149.853444	306.819501	-371.412814	58.284344	276.464552	-411.350480	314.054612	131.417911	-383.571295	213.112253	151.988786	-459.516677	-214.389482	914.542140	-268.575597	-43.663101	84.899178	-475.058110	-51.847134	80.141280	-77.555289	
